<svg width="28" height="28" viewBox="0 0 28 28" fill="none" xmlns="http://www.w3.org/2000/svg">
<path d="M12.454 2.80879e-08C14.7926 -0.000156997 17.0839 0.658076 19.0659 1.89937C21.0478 3.14066 22.6402 4.91486 23.6609 7.01892C24.6816 9.12299 25.0893 11.4719 24.8374 13.7969C24.5854 16.1218 23.684 18.3289 22.2363 20.1655L27.5876 25.5167C27.8545 25.7931 28.0022 26.1632 27.9989 26.5474C27.9955 26.9316 27.8414 27.2991 27.5698 27.5708C27.2981 27.8425 26.9306 27.9966 26.5464 27.9999C26.1622 28.0033 25.792 27.8556 25.5157 27.5887L20.1644 22.2374C18.6045 23.4667 16.7732 24.3052 14.8234 24.6828C12.8736 25.0605 10.8617 24.9664 8.95561 24.4084C7.04953 23.8504 5.30454 22.8446 3.86621 21.475C2.42789 20.1055 1.33794 18.4118 0.687306 16.5353C0.036671 14.6588 -0.155785 12.6539 0.125994 10.688C0.407774 8.72197 1.15562 6.85187 2.30713 5.23369C3.45865 3.61551 4.98045 2.29616 6.74556 1.38573C8.51067 0.475291 10.4679 0.00016923 12.454 2.80879e-08ZM12.454 2.9306C9.92795 2.9306 7.50537 3.93406 5.71919 5.72025C3.93301 7.50643 2.92954 9.92901 2.92954 12.455C2.92954 14.9811 3.93301 17.4037 5.71919 19.1898C7.50537 20.976 9.92795 21.9795 12.454 21.9795C14.98 21.9795 17.4026 20.976 19.1888 19.1898C20.975 17.4037 21.9784 14.9811 21.9784 12.455C21.9784 9.92901 20.975 7.50643 19.1888 5.72025C17.4026 3.93406 14.98 2.9306 12.454 2.9306ZM12.454 4.3959C14.5914 4.3959 16.6413 5.24499 18.1527 6.75637C19.6641 8.26775 20.5131 10.3176 20.5131 12.455C20.5131 14.5925 19.6641 16.6423 18.1527 18.1537C16.6413 19.6651 14.5914 20.5142 12.454 20.5142C10.3166 20.5142 8.26669 19.6651 6.75531 18.1537C5.24393 16.6423 4.39484 14.5925 4.39484 12.455C4.39484 10.3176 5.24393 8.26775 6.75531 6.75637C8.26669 5.24499 10.3166 4.3959 12.454 4.3959Z" fill="black" fill-opacity="0.7"/>
</svg>
